<svg xmlns="http://www.w3.org/2000/svg" xmlns:xlink="http://www.w3.org/1999/xlink" width="200" zoomAndPan="magnify" viewBox="0 0 150 149.999998" height="200" preserveAspectRatio="xMidYMid meet" version="1.0"><defs><clipPath id="40869a931c"><path d="M 11.382812 10.285156 L 138.617188 10.285156 L 138.617188 140 L 11.382812 140 Z M 11.382812 10.285156 " clip-rule="nonzero"/></clipPath><clipPath id="55e7d6f03d"><path d="M 18.132812 10.285156 L 131.867188 10.285156 C 135.597656 10.285156 138.617188 13.308594 138.617188 17.035156 L 138.617188 132.964844 C 138.617188 136.691406 135.597656 139.714844 131.867188 139.714844 L 18.132812 139.714844 C 14.402344 139.714844 11.382812 136.691406 11.382812 132.964844 L 11.382812 17.035156 C 11.382812 13.308594 14.402344 10.285156 18.132812 10.285156 Z M 18.132812 10.285156 " clip-rule="nonzero"/></clipPath><clipPath id="361a8ffae0"><path d="M 48 51.105469 L 64 51.105469 L 64 67 L 48 67 Z M 48 51.105469 " clip-rule="nonzero"/></clipPath><clipPath id="fd3e5b7100"><path d="M 86 51.105469 L 102 51.105469 L 102 67 L 86 67 Z M 86 51.105469 " clip-rule="nonzero"/></clipPath><clipPath id="311ace7c5c"><path d="M 43.402344 68 L 106.402344 68 L 106.402344 99 L 43.402344 99 Z M 43.402344 68 " clip-rule="nonzero"/></clipPath><clipPath id="be0c575c3c"><path d="M 65 51.105469 L 85 51.105469 L 85 72 L 65 72 Z M 65 51.105469 " clip-rule="nonzero"/></clipPath></defs><g clip-path="url(#40869a931c)"><g clip-path="url(#55e7d6f03d)"><path fill="#185f97" d="M 11.382812 10.285156 L 138.617188 10.285156 L 138.617188 139.511719 L 11.382812 139.511719 Z M 11.382812 10.285156 " fill-opacity="1" fill-rule="nonzero"/></g></g><g clip-path="url(#361a8ffae0)"><path fill="#ffffff" d="M 55.800781 66.421875 C 60.023438 66.421875 63.457031 62.984375 63.457031 58.761719 C 63.457031 54.539062 60.023438 51.105469 55.800781 51.105469 C 51.578125 51.105469 48.144531 54.539062 48.144531 58.761719 C 48.144531 62.984375 51.578125 66.421875 55.800781 66.421875 Z M 55.800781 53.566406 C 58.664062 53.566406 60.996094 55.898438 60.996094 58.761719 C 60.996094 61.628906 58.664062 63.960938 55.800781 63.960938 C 52.933594 63.960938 50.601562 61.628906 50.601562 58.761719 C 50.601562 55.898438 52.933594 53.566406 55.800781 53.566406 Z M 55.800781 53.566406 " fill-opacity="1" fill-rule="nonzero"/></g><g clip-path="url(#fd3e5b7100)"><path fill="#ffffff" d="M 94.195312 66.421875 C 98.417969 66.421875 101.851562 62.984375 101.851562 58.761719 C 101.851562 54.539062 98.417969 51.105469 94.195312 51.105469 C 89.972656 51.105469 86.535156 54.539062 86.535156 58.761719 C 86.535156 62.984375 89.972656 66.421875 94.195312 66.421875 Z M 94.195312 53.566406 C 97.058594 53.566406 99.390625 55.898438 99.390625 58.761719 C 99.390625 61.628906 97.058594 63.960938 94.195312 63.960938 C 91.328125 63.960938 88.996094 61.628906 88.996094 58.761719 C 88.996094 55.898438 91.328125 53.566406 94.195312 53.566406 Z M 94.195312 53.566406 " fill-opacity="1" fill-rule="nonzero"/></g><g clip-path="url(#311ace7c5c)"><path fill="#ffffff" d="M 106.230469 80.285156 L 105.835938 77.917969 C 104.882812 72.203125 99.988281 68.054688 94.195312 68.054688 C 89.175781 68.054688 84.777344 71.230469 83.105469 75.828125 C 80.699219 74.285156 77.882812 73.449219 74.996094 73.449219 C 72.113281 73.449219 69.296875 74.285156 66.886719 75.828125 C 65.21875 71.230469 60.816406 68.054688 55.800781 68.054688 C 50.007812 68.054688 45.109375 72.203125 44.160156 77.917969 L 43.765625 80.285156 C 43.4375 82.242188 43.988281 84.234375 45.269531 85.746094 C 46.554688 87.261719 48.425781 88.128906 50.414062 88.128906 L 59.824219 88.128906 L 59.664062 89.09375 C 59.253906 91.539062 59.941406 94.027344 61.542969 95.917969 C 63.144531 97.808594 65.488281 98.894531 67.964844 98.894531 L 82.027344 98.894531 C 84.507812 98.894531 86.847656 97.808594 88.449219 95.917969 C 90.054688 94.027344 90.738281 91.539062 90.332031 89.09375 L 90.171875 88.128906 L 99.582031 88.128906 C 101.566406 88.128906 103.441406 87.261719 104.722656 85.746094 C 106.007812 84.234375 106.554688 82.242188 106.230469 80.285156 Z M 47.148438 84.15625 C 46.332031 83.195312 45.984375 81.929688 46.191406 80.6875 L 46.585938 78.324219 C 47.339844 73.800781 51.214844 70.515625 55.800781 70.515625 C 60.042969 70.515625 63.726562 73.382812 64.816406 77.425781 C 62.449219 79.609375 60.839844 82.503906 60.238281 85.667969 L 50.414062 85.667969 C 49.152344 85.667969 47.960938 85.117188 47.148438 84.15625 Z M 86.574219 94.328125 C 85.4375 95.664062 83.78125 96.433594 82.027344 96.433594 L 67.964844 96.433594 C 66.210938 96.433594 64.554688 95.664062 63.421875 94.328125 C 62.289062 92.988281 61.800781 91.226562 62.089844 89.496094 L 62.605469 86.410156 C 63.09375 83.480469 64.609375 80.808594 66.875 78.890625 C 69.140625 76.96875 72.027344 75.910156 74.996094 75.910156 C 77.96875 75.910156 80.851562 76.96875 83.121094 78.890625 C 85.386719 80.808594 86.902344 83.480469 87.390625 86.410156 L 87.90625 89.496094 C 88.191406 91.226562 87.707031 92.988281 86.574219 94.328125 Z M 102.847656 84.15625 C 102.03125 85.117188 100.84375 85.667969 99.582031 85.667969 L 89.757812 85.667969 C 89.15625 82.503906 87.546875 79.609375 85.179688 77.425781 C 86.265625 73.382812 89.953125 70.515625 94.195312 70.515625 C 98.78125 70.515625 102.65625 73.800781 103.410156 78.324219 L 103.800781 80.6875 C 104.007812 81.929688 103.660156 83.195312 102.847656 84.15625 Z M 102.847656 84.15625 " fill-opacity="1" fill-rule="nonzero"/></g><g clip-path="url(#be0c575c3c)"><path fill="#ffffff" d="M 74.996094 71.003906 C 80.300781 71.003906 84.613281 66.691406 84.613281 61.386719 C 84.613281 56.085938 80.300781 51.769531 74.996094 51.769531 C 69.695312 51.769531 65.378906 56.085938 65.378906 61.386719 C 65.378906 66.691406 69.695312 71.003906 74.996094 71.003906 Z M 74.996094 54.230469 C 78.941406 54.230469 82.152344 57.441406 82.152344 61.386719 C 82.152344 65.335938 78.941406 68.542969 74.996094 68.542969 C 71.050781 68.542969 67.839844 65.335938 67.839844 61.386719 C 67.839844 57.441406 71.050781 54.230469 74.996094 54.230469 Z M 74.996094 54.230469 " fill-opacity="1" fill-rule="nonzero"/></g></svg>