<svg xmlns="http://www.w3.org/2000/svg" xmlns:xlink="http://www.w3.org/1999/xlink" width="200" zoomAndPan="magnify" viewBox="0 0 150 149.999998" height="200" preserveAspectRatio="xMidYMid meet" version="1.0"><defs><clipPath id="a96c6abaad"><path d="M 11.382812 10.285156 L 138.617188 10.285156 L 138.617188 140 L 11.382812 140 Z M 11.382812 10.285156 " clip-rule="nonzero"/></clipPath><clipPath id="8b3190d6e7"><path d="M 18.132812 10.285156 L 131.867188 10.285156 C 135.597656 10.285156 138.617188 13.308594 138.617188 17.035156 L 138.617188 132.964844 C 138.617188 136.691406 135.597656 139.714844 131.867188 139.714844 L 18.132812 139.714844 C 14.402344 139.714844 11.382812 136.691406 11.382812 132.964844 L 11.382812 17.035156 C 11.382812 13.308594 14.402344 10.285156 18.132812 10.285156 Z M 18.132812 10.285156 " clip-rule="nonzero"/></clipPath><clipPath id="7a92122def"><path d="M 47.460938 41 L 102.210938 41 L 102.210938 109 L 47.460938 109 Z M 47.460938 41 " clip-rule="nonzero"/></clipPath></defs><g clip-path="url(#a96c6abaad)"><g clip-path="url(#8b3190d6e7)"><path fill="#185f97" d="M 11.382812 10.285156 L 138.617188 10.285156 L 138.617188 139.511719 L 11.382812 139.511719 Z M 11.382812 10.285156 " fill-opacity="1" fill-rule="nonzero"/></g></g><g clip-path="url(#7a92122def)"><path fill="#ffffff" d="M 74.996094 54.859375 C 67.460938 54.859375 61.332031 60.984375 61.332031 68.519531 C 61.332031 76.050781 67.460938 82.179688 74.996094 82.179688 C 82.527344 82.179688 88.65625 76.050781 88.65625 68.519531 C 88.65625 60.984375 82.527344 54.859375 74.996094 54.859375 Z M 74.996094 80.058594 C 68.628906 80.058594 63.457031 74.886719 63.457031 68.519531 C 63.457031 62.152344 68.628906 56.980469 74.996094 56.980469 C 81.359375 56.980469 86.53125 62.152344 86.53125 68.519531 C 86.53125 74.886719 81.359375 80.058594 74.996094 80.058594 Z M 47.726562 69.140625 L 51.769531 74.738281 L 51.082031 81.609375 C 51.042969 82.058594 51.28125 82.496094 51.703125 82.683594 L 58.003906 85.496094 L 60.816406 91.808594 C 61.003906 92.230469 61.441406 92.472656 61.890625 92.429688 L 63.722656 92.246094 L 63.722656 107.894531 C 63.722656 108.265625 63.917969 108.613281 64.238281 108.8125 C 64.554688 108.996094 64.953125 109.007812 65.285156 108.835938 L 74.953125 103.691406 L 84.621094 108.835938 C 84.78125 108.917969 84.953125 108.957031 85.125 108.957031 C 85.3125 108.957031 85.511719 108.902344 85.671875 108.8125 C 85.988281 108.625 86.1875 108.28125 86.1875 107.894531 L 86.1875 92.246094 L 88.085938 92.445312 C 88.125 92.445312 88.152344 92.445312 88.191406 92.445312 C 88.601562 92.445312 88.984375 92.207031 89.160156 91.820312 L 91.984375 85.507812 L 98.296875 82.695312 C 98.722656 82.511719 98.960938 82.074219 98.921875 81.621094 L 98.21875 74.753906 L 102.261719 69.15625 C 102.527344 68.785156 102.527344 68.28125 102.261719 67.910156 L 98.21875 62.3125 L 98.921875 55.429688 C 98.972656 54.976562 98.722656 54.539062 98.296875 54.355469 L 91.984375 51.53125 L 89.160156 45.214844 C 88.972656 44.804688 88.535156 44.554688 88.085938 44.59375 L 81.214844 45.296875 L 75.617188 41.25 C 75.246094 40.984375 74.742188 40.984375 74.371094 41.25 L 68.773438 45.296875 L 61.902344 44.605469 C 61.453125 44.566406 61.015625 44.804688 60.828125 45.230469 L 58.003906 51.53125 L 51.691406 54.339844 C 51.265625 54.527344 51.027344 54.964844 51.070312 55.414062 L 51.757812 62.296875 L 47.714844 67.894531 C 47.460938 68.265625 47.460938 68.769531 47.726562 69.140625 Z M 74.996094 86.847656 C 64.886719 86.847656 56.664062 78.625 56.664062 68.519531 C 56.664062 58.414062 64.886719 50.191406 74.996094 50.191406 C 85.101562 50.191406 93.324219 58.414062 93.324219 68.519531 C 93.324219 78.625 85.101562 86.847656 74.996094 86.847656 Z M 75.457031 101.554688 C 75.152344 101.398438 74.769531 101.398438 74.464844 101.554688 L 65.855469 106.132812 L 65.855469 86.820312 C 68.613281 88.199219 71.71875 88.984375 74.996094 88.984375 C 78.242188 88.984375 81.332031 88.214844 84.066406 86.859375 L 84.066406 90.652344 C 84.027344 90.746094 84 90.851562 83.984375 90.960938 C 83.972656 91.144531 84 91.316406 84.066406 91.476562 L 84.066406 106.132812 Z M 53.734375 63.214844 C 53.878906 63 53.960938 62.75 53.933594 62.484375 L 53.269531 55.972656 L 59.25 53.304688 C 59.488281 53.199219 59.675781 53.015625 59.78125 52.777344 L 62.460938 46.792969 L 68.972656 47.457031 C 69.238281 47.484375 69.488281 47.417969 69.703125 47.257812 L 75.007812 43.425781 L 80.3125 47.257812 C 80.523438 47.40625 80.777344 47.484375 81.042969 47.457031 L 87.554688 46.792969 L 90.234375 52.777344 C 90.339844 53.015625 90.523438 53.199219 90.761719 53.304688 L 96.746094 55.972656 L 96.082031 62.484375 C 96.054688 62.75 96.121094 63 96.28125 63.214844 L 100.113281 68.519531 L 96.28125 73.824219 C 96.136719 74.035156 96.054688 74.289062 96.082031 74.554688 L 96.746094 81.066406 L 90.761719 83.730469 C 90.523438 83.835938 90.339844 84.023438 90.234375 84.261719 L 87.539062 90.257812 L 86.1875 90.125 L 86.1875 86.050781 C 86.1875 85.917969 86.160156 85.800781 86.121094 85.695312 C 91.730469 82.046875 95.445312 75.71875 95.445312 68.53125 C 95.445312 57.257812 86.265625 48.082031 74.996094 48.082031 C 63.722656 48.082031 54.542969 57.257812 54.542969 68.53125 C 54.542969 75.679688 58.230469 81.992188 63.8125 85.652344 C 63.761719 85.773438 63.734375 85.90625 63.734375 86.050781 L 63.734375 90.125 L 62.449219 90.257812 L 59.78125 84.273438 C 59.675781 84.035156 59.488281 83.851562 59.25 83.746094 L 53.269531 81.078125 L 53.933594 74.566406 C 53.960938 74.316406 53.894531 74.050781 53.734375 73.835938 L 49.902344 68.53125 Z M 53.734375 63.214844 " fill-opacity="1" fill-rule="nonzero"/></g></svg>