<svg xmlns="http://www.w3.org/2000/svg" xmlns:xlink="http://www.w3.org/1999/xlink" width="200" zoomAndPan="magnify" viewBox="0 0 150 149.999998" height="200" preserveAspectRatio="xMidYMid meet" version="1.0"><defs><clipPath id="1ef3664673"><path d="M 11.382812 10.285156 L 138.617188 10.285156 L 138.617188 140 L 11.382812 140 Z M 11.382812 10.285156 " clip-rule="nonzero"/></clipPath><clipPath id="33de5b33d3"><path d="M 18.132812 10.285156 L 131.867188 10.285156 C 135.597656 10.285156 138.617188 13.308594 138.617188 17.035156 L 138.617188 132.964844 C 138.617188 136.691406 135.597656 139.714844 131.867188 139.714844 L 18.132812 139.714844 C 14.402344 139.714844 11.382812 136.691406 11.382812 132.964844 L 11.382812 17.035156 C 11.382812 13.308594 14.402344 10.285156 18.132812 10.285156 Z M 18.132812 10.285156 " clip-rule="nonzero"/></clipPath><clipPath id="116a3d4250"><path d="M 41.289062 75 L 94 75 L 94 101 L 41.289062 101 Z M 41.289062 75 " clip-rule="nonzero"/></clipPath><clipPath id="7f02b1d2bc"><path d="M 41.289062 71 L 94 71 L 94 98 L 41.289062 98 Z M 41.289062 71 " clip-rule="nonzero"/></clipPath><clipPath id="0d17013161"><path d="M 41.289062 48 L 94 48 L 94 87 L 41.289062 87 Z M 41.289062 48 " clip-rule="nonzero"/></clipPath><clipPath id="3f97b73650"><path d="M 41.289062 64 L 94 64 L 94 90 L 41.289062 90 Z M 41.289062 64 " clip-rule="nonzero"/></clipPath><clipPath id="38c5e6f0a1"><path d="M 41.289062 67 L 94 67 L 94 94 L 41.289062 94 Z M 41.289062 67 " clip-rule="nonzero"/></clipPath><clipPath id="d22d7bbd3b"><path d="M 61 38.554688 L 69 38.554688 L 69 46 L 61 46 Z M 61 38.554688 " clip-rule="nonzero"/></clipPath><clipPath id="2014650333"><path d="M 101 69 L 108.789062 69 L 108.789062 77 L 101 77 Z M 101 69 " clip-rule="nonzero"/></clipPath><clipPath id="ab8016aed1"><path d="M 91 106 L 102 106 L 102 111.304688 L 91 111.304688 Z M 91 106 " clip-rule="nonzero"/></clipPath></defs><g clip-path="url(#1ef3664673)"><g clip-path="url(#33de5b33d3)"><path fill="#185f97" d="M 11.382812 10.285156 L 138.617188 10.285156 L 138.617188 139.511719 L 11.382812 139.511719 Z M 11.382812 10.285156 " fill-opacity="1" fill-rule="nonzero"/></g></g><g clip-path="url(#116a3d4250)"><path fill="#ffffff" d="M 93.558594 77.167969 L 60.953125 100.664062 C 60.507812 100.996094 59.773438 100.996094 59.316406 100.664062 L 41.921875 88.128906 C 41.472656 87.804688 41.472656 87.277344 41.921875 86.945312 L 43.085938 86.109375 C 43.121094 86.164062 43.171875 86.21875 43.230469 86.257812 L 58.917969 97.5625 C 59.257812 97.808594 59.695312 97.929688 60.132812 97.929688 C 60.574219 97.929688 61.015625 97.808594 61.347656 97.5625 L 92.253906 75.289062 C 92.308594 75.25 92.355469 75.203125 92.398438 75.144531 L 93.558594 75.984375 C 94.011719 76.308594 94.011719 76.835938 93.558594 77.167969 " fill-opacity="1" fill-rule="nonzero"/></g><g clip-path="url(#7f02b1d2bc)"><path fill="#ffffff" d="M 93.554688 73.519531 L 60.945312 97.015625 C 60.5 97.347656 59.765625 97.347656 59.3125 97.015625 L 41.921875 84.480469 C 41.46875 84.160156 41.46875 83.628906 41.921875 83.300781 L 43.078125 82.46875 C 43.117188 82.523438 43.171875 82.574219 43.226562 82.613281 L 58.914062 93.921875 C 59.25 94.167969 59.691406 94.289062 60.132812 94.289062 C 60.570312 94.289062 61.011719 94.167969 61.347656 93.921875 L 92.25 71.644531 C 92.304688 71.601562 92.359375 71.554688 92.394531 71.5 L 93.554688 72.335938 C 94.007812 72.660156 94.007812 73.191406 93.554688 73.519531 " fill-opacity="1" fill-rule="nonzero"/></g><g clip-path="url(#0d17013161)"><path fill="#ffffff" d="M 87.550781 63.441406 L 62.410156 81.5625 C 60.773438 81.5625 59.859375 81.5625 58.226562 81.5625 L 47.9375 74.144531 C 47.9375 72.96875 47.9375 72.304688 47.9375 71.125 L 73.074219 53.011719 C 74.710938 53.011719 75.625 53.011719 77.261719 53.011719 L 87.550781 60.421875 C 87.550781 61.605469 87.550781 62.265625 87.550781 63.441406 Z M 93.5625 61.210938 L 76.171875 48.675781 C 75.71875 48.347656 74.980469 48.347656 74.527344 48.675781 L 41.921875 72.175781 C 41.46875 72.503906 41.46875 73.03125 41.921875 73.359375 L 59.3125 85.890625 C 59.765625 86.21875 60.5 86.21875 60.953125 85.890625 L 93.5625 62.394531 C 94.011719 62.066406 94.011719 61.535156 93.5625 61.210938 " fill-opacity="1" fill-rule="nonzero"/></g><path fill="#ffffff" d="M 72.734375 63.6875 C 69.976562 61.699219 65.507812 61.699219 62.753906 63.6875 C 59.996094 65.675781 59.996094 68.894531 62.753906 70.882812 C 65.507812 72.867188 69.976562 72.867188 72.734375 70.882812 C 75.488281 68.894531 75.488281 65.675781 72.734375 63.6875 " fill-opacity="1" fill-rule="nonzero"/><g clip-path="url(#3f97b73650)"><path fill="#ffffff" d="M 93.566406 66.199219 L 60.953125 89.695312 C 60.507812 90.019531 59.773438 90.019531 59.316406 89.695312 L 41.921875 77.160156 C 41.472656 76.835938 41.472656 76.308594 41.921875 75.976562 L 43.191406 75.066406 C 43.230469 75.132812 43.285156 75.1875 43.351562 75.238281 L 58.914062 86.445312 C 59.261719 86.699219 59.695312 86.824219 60.132812 86.824219 C 60.574219 86.824219 61.003906 86.699219 61.355469 86.445312 L 92.136719 64.265625 C 92.199219 64.21875 92.253906 64.164062 92.292969 64.101562 L 93.566406 65.015625 C 94.011719 65.339844 94.011719 65.867188 93.566406 66.199219 " fill-opacity="1" fill-rule="nonzero"/></g><g clip-path="url(#38c5e6f0a1)"><path fill="#ffffff" d="M 93.558594 69.835938 L 60.953125 93.335938 C 60.507812 93.664062 59.773438 93.664062 59.316406 93.335938 L 41.921875 80.800781 C 41.472656 80.476562 41.472656 79.949219 41.921875 79.617188 L 43.066406 78.796875 C 43.105469 78.863281 43.164062 78.921875 43.230469 78.972656 L 58.914062 90.269531 C 59.257812 90.519531 59.695312 90.644531 60.132812 90.644531 C 60.574219 90.644531 61.015625 90.519531 61.347656 90.269531 L 92.253906 68.003906 C 92.320312 67.953125 92.378906 67.898438 92.417969 67.832031 L 93.558594 68.65625 C 94.011719 68.976562 94.011719 69.507812 93.558594 69.835938 " fill-opacity="1" fill-rule="nonzero"/></g><path fill="#ffffff" d="M 53.023438 43.890625 L 51.640625 46.421875 C 51.59375 46.503906 51.527344 46.570312 51.445312 46.617188 L 48.914062 48 C 48.570312 48.1875 48.570312 48.675781 48.914062 48.863281 L 51.445312 50.246094 C 51.527344 50.292969 51.59375 50.359375 51.640625 50.441406 L 53.023438 52.976562 C 53.210938 53.316406 53.699219 53.316406 53.886719 52.976562 L 55.273438 50.441406 C 55.316406 50.359375 55.382812 50.292969 55.46875 50.246094 L 57.996094 48.863281 C 58.339844 48.675781 58.339844 48.1875 57.996094 48 L 55.46875 46.617188 C 55.382812 46.570312 55.316406 46.503906 55.273438 46.421875 L 53.886719 43.890625 C 53.699219 43.550781 53.210938 43.550781 53.023438 43.890625 " fill-opacity="1" fill-rule="nonzero"/><g clip-path="url(#d22d7bbd3b)"><path fill="#ffffff" d="M 64.507812 38.769531 L 63.558594 40.5 C 63.53125 40.554688 63.480469 40.601562 63.429688 40.632812 L 61.695312 41.578125 C 61.460938 41.707031 61.460938 42.042969 61.695312 42.167969 L 63.429688 43.117188 C 63.480469 43.148438 63.53125 43.195312 63.558594 43.25 L 64.507812 44.984375 C 64.636719 45.214844 64.972656 45.214844 65.097656 44.984375 L 66.042969 43.25 C 66.078125 43.195312 66.121094 43.148438 66.179688 43.117188 L 67.914062 42.167969 C 68.144531 42.042969 68.144531 41.707031 67.914062 41.578125 L 66.179688 40.632812 C 66.121094 40.601562 66.078125 40.554688 66.042969 40.5 L 65.097656 38.769531 C 64.972656 38.535156 64.636719 38.535156 64.507812 38.769531 " fill-opacity="1" fill-rule="nonzero"/></g><g clip-path="url(#2014650333)"><path fill="#ffffff" d="M 104.632812 69.320312 L 103.628906 71.152344 C 103.59375 71.210938 103.546875 71.261719 103.488281 71.296875 L 101.65625 72.296875 C 101.410156 72.429688 101.410156 72.785156 101.65625 72.917969 L 103.488281 73.917969 C 103.546875 73.953125 103.59375 74.003906 103.628906 74.0625 L 104.632812 75.894531 C 104.765625 76.140625 105.121094 76.140625 105.253906 75.894531 L 106.253906 74.0625 C 106.289062 74.003906 106.335938 73.953125 106.398438 73.917969 L 108.230469 72.917969 C 108.472656 72.785156 108.472656 72.429688 108.230469 72.296875 L 106.398438 71.296875 C 106.335938 71.261719 106.289062 71.210938 106.253906 71.152344 L 105.253906 69.320312 C 105.121094 69.078125 104.765625 69.078125 104.632812 69.320312 " fill-opacity="1" fill-rule="nonzero"/></g><path fill="#ffffff" d="M 91.296875 92.574219 C 93.40625 94.097656 96.835938 94.097656 98.949219 92.574219 C 100.167969 91.699219 100.671875 90.511719 100.488281 89.363281 C 100.234375 89.730469 99.910156 90.058594 99.527344 90.355469 C 99.492188 90.390625 99.421875 90.4375 99.355469 90.492188 C 98.167969 91.347656 96.644531 91.777344 95.117188 91.777344 C 93.59375 91.777344 92.074219 91.347656 90.894531 90.5 C 90.820312 90.4375 90.75 90.390625 90.679688 90.328125 C 90.316406 90.046875 90.003906 89.722656 89.753906 89.359375 C 89.566406 90.507812 90.074219 91.691406 91.296875 92.574219 " fill-opacity="1" fill-rule="nonzero"/><path fill="#ffffff" d="M 91.296875 87.308594 C 93.410156 88.828125 96.835938 88.828125 98.949219 87.308594 C 101.058594 85.785156 101.058594 83.316406 98.949219 81.792969 C 96.835938 80.269531 93.410156 80.269531 91.296875 81.792969 C 89.183594 83.316406 89.183594 85.785156 91.296875 87.308594 " fill-opacity="1" fill-rule="nonzero"/><path fill="#ffffff" d="M 99.347656 93.128906 C 98.160156 93.980469 96.644531 94.410156 95.117188 94.410156 C 93.601562 94.410156 92.082031 93.980469 90.894531 93.128906 C 90.425781 92.792969 90.046875 92.410156 89.753906 91.996094 C 89.566406 93.136719 90.082031 94.324219 91.296875 95.203125 C 93.40625 96.730469 96.835938 96.730469 98.949219 95.203125 C 100.167969 94.324219 100.683594 93.136719 100.488281 91.996094 C 100.203125 92.414062 99.816406 92.792969 99.347656 93.128906 " fill-opacity="1" fill-rule="nonzero"/><path fill="#ffffff" d="M 99.621094 87.65625 C 99.535156 87.730469 99.445312 87.800781 99.347656 87.867188 C 98.167969 88.71875 96.644531 89.148438 95.125 89.148438 C 93.601562 89.148438 92.082031 88.71875 90.894531 87.867188 C 90.796875 87.800781 90.707031 87.722656 90.617188 87.65625 C 90.273438 87.375 89.988281 87.066406 89.753906 86.734375 C 89.65625 87.324219 89.753906 87.9375 90.035156 88.5 C 90.296875 89.027344 90.714844 89.523438 91.296875 89.945312 C 93.40625 91.460938 96.835938 91.460938 98.949219 89.945312 C 99.535156 89.523438 99.953125 89.027344 100.207031 88.503906 C 100.496094 87.9375 100.59375 87.332031 100.488281 86.734375 C 100.253906 87.074219 99.96875 87.375 99.621094 87.65625 " fill-opacity="1" fill-rule="nonzero"/><path fill="#ffffff" d="M 83.621094 94.757812 C 81.507812 93.234375 78.085938 93.234375 75.96875 94.757812 C 73.859375 96.277344 73.859375 98.746094 75.96875 100.269531 C 78.085938 101.792969 81.507812 101.792969 83.621094 100.269531 C 85.734375 98.746094 85.734375 96.277344 83.621094 94.757812 " fill-opacity="1" fill-rule="nonzero"/><path fill="#ffffff" d="M 75.84375 102.875 C 77.953125 104.402344 81.378906 104.402344 83.496094 102.875 C 84.640625 102.042969 85.164062 100.933594 85.054688 99.847656 C 84.820312 100.148438 84.53125 100.433594 84.203125 100.683594 C 84.167969 100.71875 84.101562 100.765625 84.03125 100.816406 C 82.839844 101.683594 81.316406 102.105469 79.792969 102.105469 C 78.273438 102.105469 76.75 101.683594 75.570312 100.828125 C 75.058594 100.449219 74.628906 100.011719 74.324219 99.53125 C 74.074219 100.714844 74.578125 101.964844 75.84375 102.875 " fill-opacity="1" fill-rule="nonzero"/><path fill="#ffffff" d="M 84.023438 103.460938 C 82.839844 104.320312 81.316406 104.742188 79.792969 104.742188 C 78.273438 104.742188 76.757812 104.320312 75.570312 103.460938 C 75.066406 103.097656 74.65625 102.683594 74.351562 102.222656 C 74.03125 103.453125 74.523438 104.773438 75.84375 105.71875 C 77.953125 107.246094 81.378906 107.246094 83.496094 105.71875 C 84.710938 104.839844 85.226562 103.652344 85.035156 102.507812 C 84.761719 102.855469 84.421875 103.171875 84.023438 103.460938 " fill-opacity="1" fill-rule="nonzero"/><path fill="#ffffff" d="M 92.691406 107.1875 C 94.804688 108.710938 98.230469 108.710938 100.339844 107.1875 C 102.457031 105.664062 102.457031 103.195312 100.339844 101.675781 C 98.230469 100.148438 94.804688 100.148438 92.691406 101.675781 C 91.160156 102.773438 90.742188 104.375 91.421875 105.746094 C 91.683594 106.273438 92.105469 106.765625 92.691406 107.1875 " fill-opacity="1" fill-rule="nonzero"/><g clip-path="url(#ab8016aed1)"><path fill="#ffffff" d="M 100.742188 107.746094 C 99.554688 108.597656 98.035156 109.023438 96.519531 109.023438 C 94.992188 109.023438 93.476562 108.597656 92.285156 107.746094 C 91.835938 107.417969 91.457031 107.039062 91.160156 106.628906 C 90.933594 107.792969 91.449219 109.019531 92.695312 109.917969 C 94.804688 111.4375 98.230469 111.4375 100.34375 109.917969 C 101.589844 109.019531 102.097656 107.792969 101.871094 106.632812 C 101.574219 107.046875 101.203125 107.417969 100.742188 107.746094 " fill-opacity="1" fill-rule="nonzero"/></g></svg>