<svg xmlns="http://www.w3.org/2000/svg" xmlns:xlink="http://www.w3.org/1999/xlink" width="200" zoomAndPan="magnify" viewBox="0 0 150 149.999998" height="200" preserveAspectRatio="xMidYMid meet" version="1.0"><defs><clipPath id="85b5ee2b79"><path d="M 11.382812 10.285156 L 138.617188 10.285156 L 138.617188 140 L 11.382812 140 Z M 11.382812 10.285156 " clip-rule="nonzero"/></clipPath><clipPath id="87cf42dd0c"><path d="M 18.132812 10.285156 L 131.867188 10.285156 C 135.597656 10.285156 138.617188 13.308594 138.617188 17.035156 L 138.617188 132.964844 C 138.617188 136.691406 135.597656 139.714844 131.867188 139.714844 L 18.132812 139.714844 C 14.402344 139.714844 11.382812 136.691406 11.382812 132.964844 L 11.382812 17.035156 C 11.382812 13.308594 14.402344 10.285156 18.132812 10.285156 Z M 18.132812 10.285156 " clip-rule="nonzero"/></clipPath><clipPath id="612cf9a05f"><path d="M 77 82 L 102 82 L 102 107.222656 L 77 107.222656 Z M 77 82 " clip-rule="nonzero"/></clipPath><clipPath id="259f1ea0b6"><path d="M 51 42.722656 L 103.515625 42.722656 L 103.515625 79 L 51 79 Z M 51 42.722656 " clip-rule="nonzero"/></clipPath></defs><g clip-path="url(#85b5ee2b79)"><g clip-path="url(#87cf42dd0c)"><path fill="#185f97" d="M 11.382812 10.285156 L 138.617188 10.285156 L 138.617188 139.511719 L 11.382812 139.511719 Z M 11.382812 10.285156 " fill-opacity="1" fill-rule="nonzero"/></g></g><path fill="#ffffff" d="M 75.972656 78.570312 C 75.492188 78.570312 75.136719 78.363281 74.898438 77.945312 C 74.660156 77.527344 74.664062 77.113281 74.910156 76.699219 C 76.09375 74.710938 76.578125 72.5625 76.363281 70.257812 C 76.347656 70.09375 76.363281 69.933594 76.410156 69.773438 C 76.460938 69.617188 76.539062 69.476562 76.640625 69.347656 C 76.746094 69.222656 76.875 69.121094 77.019531 69.042969 C 77.164062 68.96875 77.320312 68.921875 77.484375 68.90625 C 77.648438 68.890625 77.808594 68.90625 77.964844 68.957031 C 78.121094 69.003906 78.265625 69.082031 78.390625 69.1875 C 78.515625 69.292969 78.617188 69.417969 78.695312 69.5625 C 78.773438 69.707031 78.816406 69.863281 78.832031 70.027344 C 78.964844 71.410156 78.875 72.78125 78.570312 74.136719 C 78.261719 75.496094 77.753906 76.769531 77.042969 77.964844 C 76.800781 78.371094 76.445312 78.574219 75.972656 78.570312 Z M 75.972656 78.570312 " fill-opacity="1" fill-rule="nonzero"/><path fill="#ffffff" d="M 65.695312 88.691406 C 65.269531 88.691406 64.839844 88.675781 64.410156 88.640625 C 62.320312 88.488281 60.328125 87.976562 58.425781 87.101562 C 56.523438 86.230469 54.832031 85.054688 53.351562 83.574219 C 47.414062 77.640625 46.539062 68.308594 51.273438 61.390625 C 51.792969 60.625 52.375 59.90625 53.011719 59.234375 C 53.648438 58.5625 54.332031 57.945312 55.066406 57.382812 C 55.800781 56.816406 56.574219 56.316406 57.390625 55.875 C 58.203125 55.433594 59.046875 55.0625 59.921875 54.753906 C 60.796875 54.449219 61.6875 54.214844 62.597656 54.050781 C 63.507812 53.886719 64.429688 53.792969 65.355469 53.773438 C 66.277344 53.757812 67.199219 53.808594 68.117188 53.9375 C 69.035156 54.066406 69.933594 54.265625 70.820312 54.535156 C 72.007812 54.902344 73.140625 55.386719 74.222656 55.992188 C 75.304688 56.597656 76.3125 57.3125 77.242188 58.132812 C 78.175781 58.953125 79.007812 59.859375 79.746094 60.859375 C 80.484375 61.855469 81.109375 62.917969 81.621094 64.050781 C 81.746094 64.324219 81.867188 64.613281 81.976562 64.898438 C 82.230469 65.554688 82.445312 66.21875 82.617188 66.898438 C 83.09375 68.769531 83.253906 70.667969 83.105469 72.59375 C 82.953125 74.519531 82.496094 76.371094 81.734375 78.144531 C 81.324219 79.109375 80.824219 80.023438 80.246094 80.894531 C 80.121094 81.082031 79.984375 81.277344 79.847656 81.464844 L 79.828125 81.492188 C 78.742188 82.984375 77.453125 84.269531 75.964844 85.359375 C 74.472656 86.441406 72.847656 87.269531 71.09375 87.835938 C 69.339844 88.40625 67.539062 88.691406 65.695312 88.691406 Z M 65.707031 56.25 C 64.488281 56.253906 63.285156 56.398438 62.101562 56.691406 C 60.917969 56.988281 59.785156 57.417969 58.707031 57.988281 C 57.628906 58.558594 56.632812 59.246094 55.722656 60.058594 C 54.8125 60.871094 54.011719 61.78125 53.324219 62.789062 C 49.265625 68.722656 50.015625 76.726562 55.109375 81.820312 C 60.355469 87.066406 68.511719 87.714844 74.503906 83.351562 C 75.773438 82.421875 76.875 81.324219 77.804688 80.054688 L 77.824219 80.027344 C 77.949219 79.859375 78.066406 79.6875 78.179688 79.519531 C 78.675781 78.773438 79.101562 77.988281 79.457031 77.164062 C 80.109375 75.640625 80.5 74.054688 80.628906 72.402344 C 80.761719 70.746094 80.621094 69.117188 80.210938 67.511719 C 80.066406 66.929688 79.882812 66.359375 79.664062 65.800781 C 79.570312 65.554688 79.464844 65.308594 79.359375 65.070312 C 78.792969 63.816406 78.070312 62.664062 77.1875 61.609375 C 76.304688 60.554688 75.296875 59.640625 74.164062 58.863281 C 73.027344 58.089844 71.808594 57.480469 70.507812 57.039062 C 69.207031 56.601562 67.867188 56.34375 66.496094 56.273438 C 66.230469 56.257812 65.96875 56.25 65.707031 56.25 Z M 78.828125 80.765625 Z M 65.699219 84.417969 C 64.851562 84.417969 64.011719 84.335938 63.175781 84.171875 C 62.34375 84.011719 61.535156 83.769531 60.746094 83.449219 C 59.960938 83.132812 59.210938 82.738281 58.5 82.277344 C 57.789062 81.8125 57.128906 81.285156 56.519531 80.695312 C 55.910156 80.101562 55.363281 79.460938 54.878906 78.761719 C 54.394531 78.066406 53.980469 77.328125 53.636719 76.550781 C 53.292969 75.773438 53.027344 74.972656 52.839844 74.144531 C 52.652344 73.316406 52.546875 72.476562 52.519531 71.628906 C 52.496094 70.78125 52.550781 69.9375 52.6875 69.101562 C 52.824219 68.261719 53.039062 67.445312 53.335938 66.648438 C 53.628906 65.851562 54 65.09375 54.441406 64.367188 C 54.882812 63.640625 55.390625 62.964844 55.960938 62.339844 C 56.535156 61.710938 57.160156 61.144531 57.84375 60.640625 C 58.523438 60.132812 59.246094 59.699219 60.015625 59.332031 C 60.78125 58.964844 61.574219 58.675781 62.394531 58.464844 C 63.21875 58.25 64.050781 58.117188 64.898438 58.066406 C 65.746094 58.015625 66.589844 58.042969 67.433594 58.15625 C 68.273438 58.269531 69.097656 58.457031 69.902344 58.730469 C 70.707031 59 71.480469 59.34375 72.21875 59.765625 C 72.957031 60.183594 73.648438 60.671875 74.289062 61.222656 C 74.933594 61.777344 75.519531 62.386719 76.046875 63.050781 C 76.574219 63.71875 77.03125 64.429688 77.421875 65.183594 C 77.808594 65.9375 78.125 66.722656 78.359375 67.535156 C 78.597656 68.351562 78.757812 69.183594 78.832031 70.027344 C 78.847656 70.191406 78.832031 70.351562 78.78125 70.507812 C 78.734375 70.667969 78.65625 70.808594 78.550781 70.933594 C 78.445312 71.0625 78.320312 71.164062 78.175781 71.238281 C 78.027344 71.316406 77.875 71.359375 77.710938 71.375 C 77.546875 71.390625 77.386719 71.375 77.226562 71.324219 C 77.070312 71.277344 76.929688 71.199219 76.800781 71.09375 C 76.675781 70.988281 76.574219 70.863281 76.5 70.714844 C 76.421875 70.570312 76.375 70.414062 76.363281 70.25 C 76.324219 69.835938 76.257812 69.421875 76.171875 69.011719 C 76.082031 68.601562 75.972656 68.195312 75.835938 67.800781 C 75.699219 67.402344 75.542969 67.015625 75.363281 66.636719 C 75.179688 66.257812 74.976562 65.890625 74.753906 65.539062 C 74.527344 65.183594 74.285156 64.84375 74.019531 64.515625 C 73.753906 64.191406 73.472656 63.882812 73.171875 63.589844 C 72.871094 63.296875 72.554688 63.023438 72.222656 62.769531 C 71.886719 62.515625 71.542969 62.28125 71.179688 62.066406 C 70.820312 61.851562 70.449219 61.660156 70.0625 61.488281 C 69.679688 61.320312 69.289062 61.171875 68.886719 61.050781 C 68.488281 60.925781 68.082031 60.824219 67.667969 60.75 C 67.253906 60.671875 66.839844 60.621094 66.421875 60.59375 C 66.003906 60.566406 65.585938 60.566406 65.164062 60.589844 C 64.746094 60.609375 64.332031 60.65625 63.917969 60.730469 C 63.503906 60.800781 63.097656 60.894531 62.695312 61.015625 C 62.292969 61.136719 61.898438 61.277344 61.511719 61.445312 C 61.128906 61.609375 60.753906 61.796875 60.390625 62.007812 C 60.027344 62.21875 59.679688 62.449219 59.34375 62.699219 C 59.007812 62.953125 58.6875 63.222656 58.382812 63.511719 C 58.078125 63.800781 57.792969 64.105469 57.523438 64.429688 C 57.257812 64.75 57.007812 65.089844 56.78125 65.441406 C 56.550781 65.792969 56.347656 66.15625 56.160156 66.535156 C 55.976562 66.910156 55.8125 67.296875 55.671875 67.691406 C 55.535156 68.085938 55.417969 68.488281 55.324219 68.898438 C 55.234375 69.308594 55.164062 69.722656 55.121094 70.136719 C 55.078125 70.554688 55.058594 70.972656 55.066406 71.394531 C 55.070312 71.8125 55.101562 72.230469 55.15625 72.644531 C 55.210938 73.0625 55.292969 73.472656 55.394531 73.878906 C 55.5 74.285156 55.625 74.683594 55.777344 75.074219 C 55.925781 75.46875 56.101562 75.847656 56.296875 76.21875 C 56.492188 76.589844 56.707031 76.949219 56.945312 77.292969 C 57.183594 77.640625 57.441406 77.96875 57.71875 78.285156 C 57.996094 78.601562 58.289062 78.898438 58.601562 79.179688 C 58.914062 79.460938 59.238281 79.722656 59.582031 79.964844 C 59.925781 80.203125 60.28125 80.425781 60.648438 80.625 C 61.019531 80.824219 61.398438 81.003906 61.789062 81.160156 C 62.175781 81.3125 62.574219 81.445312 62.980469 81.554688 C 63.382812 81.660156 63.792969 81.746094 64.210938 81.804688 C 64.625 81.867188 65.042969 81.902344 65.460938 81.914062 C 65.882812 81.921875 66.300781 81.910156 66.71875 81.871094 C 67.136719 81.832031 67.550781 81.769531 67.960938 81.683594 C 68.371094 81.59375 68.773438 81.484375 69.171875 81.347656 C 69.566406 81.214844 69.957031 81.054688 70.332031 80.875 C 70.710938 80.695312 71.078125 80.492188 71.433594 80.269531 C 71.789062 80.042969 72.128906 79.800781 72.453125 79.535156 C 72.78125 79.273438 73.089844 78.988281 73.382812 78.6875 C 73.675781 78.386719 73.949219 78.070312 74.203125 77.738281 C 74.460938 77.40625 74.695312 77.058594 74.910156 76.699219 C 74.992188 76.558594 75.101562 76.4375 75.234375 76.339844 C 75.363281 76.242188 75.511719 76.171875 75.667969 76.132812 C 75.828125 76.089844 75.988281 76.082031 76.152344 76.105469 C 76.316406 76.128906 76.46875 76.183594 76.609375 76.269531 C 76.75 76.351562 76.871094 76.460938 76.96875 76.589844 C 77.066406 76.722656 77.136719 76.867188 77.175781 77.027344 C 77.21875 77.1875 77.226562 77.347656 77.203125 77.511719 C 77.179688 77.675781 77.125 77.828125 77.042969 77.96875 C 76.476562 78.914062 75.804688 79.777344 75.027344 80.558594 C 73.792969 81.796875 72.367188 82.75 70.75 83.421875 C 69.132812 84.089844 67.449219 84.421875 65.699219 84.417969 Z M 65.699219 84.417969 " fill-opacity="1" fill-rule="nonzero"/><path fill="#ffffff" d="M 78.992188 90.085938 L 78.9375 90.085938 C 78.574219 90.070312 78.277344 89.921875 78.042969 89.644531 L 74.28125 85.152344 C 74.175781 85.027344 74.097656 84.886719 74.046875 84.730469 C 74 84.570312 73.980469 84.410156 73.996094 84.246094 C 74.007812 84.082031 74.054688 83.929688 74.132812 83.78125 C 74.207031 83.636719 74.308594 83.511719 74.433594 83.40625 C 74.5625 83.300781 74.703125 83.222656 74.859375 83.171875 C 75.015625 83.121094 75.175781 83.105469 75.339844 83.121094 C 75.503906 83.132812 75.660156 83.179688 75.804688 83.257812 C 75.953125 83.332031 76.078125 83.433594 76.183594 83.558594 L 79.074219 87.011719 L 81.480469 84.605469 L 78.027344 81.714844 C 77.902344 81.609375 77.800781 81.484375 77.726562 81.339844 C 77.648438 81.191406 77.605469 81.039062 77.589844 80.875 C 77.574219 80.710938 77.59375 80.550781 77.640625 80.390625 C 77.691406 80.234375 77.769531 80.09375 77.875 79.96875 C 77.980469 79.839844 78.105469 79.738281 78.25 79.664062 C 78.398438 79.585938 78.554688 79.542969 78.71875 79.527344 C 78.882812 79.511719 79.042969 79.53125 79.199219 79.582031 C 79.355469 79.628906 79.496094 79.707031 79.625 79.8125 L 84.113281 83.574219 C 84.246094 83.6875 84.351562 83.820312 84.425781 83.976562 C 84.503906 84.132812 84.546875 84.296875 84.554688 84.472656 C 84.5625 84.644531 84.53125 84.8125 84.46875 84.976562 C 84.40625 85.136719 84.3125 85.28125 84.191406 85.402344 L 79.867188 89.726562 C 79.625 89.964844 79.332031 90.085938 78.992188 90.085938 Z M 78.992188 90.085938 " fill-opacity="1" fill-rule="nonzero"/><g clip-path="url(#612cf9a05f)"><path fill="#ffffff" d="M 95.617188 107.261719 C 94.804688 107.265625 94.023438 107.109375 93.273438 106.800781 C 92.523438 106.488281 91.863281 106.046875 91.289062 105.46875 L 78.261719 92.445312 C 77.957031 92.140625 77.71875 91.785156 77.554688 91.386719 C 77.386719 90.984375 77.304688 90.566406 77.304688 90.132812 C 77.304688 89.699219 77.386719 89.285156 77.554688 88.882812 C 77.71875 88.484375 77.957031 88.128906 78.261719 87.824219 L 82.292969 83.792969 C 82.597656 83.488281 82.953125 83.25 83.351562 83.085938 C 83.753906 82.917969 84.167969 82.835938 84.601562 82.835938 C 85.035156 82.835938 85.453125 82.917969 85.855469 83.085938 C 86.253906 83.25 86.609375 83.488281 86.914062 83.792969 L 99.941406 96.820312 C 100.367188 97.246094 100.726562 97.726562 101.011719 98.261719 C 101.296875 98.792969 101.496094 99.355469 101.613281 99.949219 C 101.734375 100.542969 101.761719 101.140625 101.703125 101.742188 C 101.644531 102.347656 101.5 102.925781 101.265625 103.484375 C 101.035156 104.042969 100.726562 104.558594 100.34375 105.023438 C 99.960938 105.492188 99.515625 105.894531 99.015625 106.230469 C 98.511719 106.566406 97.96875 106.824219 97.390625 107 C 96.8125 107.171875 96.21875 107.261719 95.617188 107.261719 Z M 84.601562 85.316406 C 84.382812 85.316406 84.199219 85.394531 84.042969 85.550781 L 80.019531 89.574219 C 79.863281 89.730469 79.789062 89.914062 79.789062 90.132812 C 79.789062 90.347656 79.863281 90.535156 80.019531 90.6875 L 93.046875 103.714844 C 93.386719 104.054688 93.777344 104.316406 94.222656 104.503906 C 94.667969 104.6875 95.132812 104.78125 95.617188 104.78125 C 96.097656 104.78125 96.5625 104.6875 97.007812 104.503906 C 97.453125 104.316406 97.84375 104.054688 98.1875 103.714844 C 98.527344 103.375 98.789062 102.980469 98.972656 102.535156 C 99.160156 102.089844 99.25 101.625 99.25 101.144531 C 99.25 100.664062 99.160156 100.199219 98.976562 99.753906 C 98.789062 99.308594 98.527344 98.914062 98.1875 98.574219 L 85.15625 85.546875 C 85.003906 85.394531 84.820312 85.316406 84.601562 85.316406 Z M 84.601562 85.316406 " fill-opacity="1" fill-rule="nonzero"/></g><path fill="#ffffff" d="M 81.324219 94.988281 C 81.074219 94.988281 80.84375 94.917969 80.632812 94.78125 C 80.425781 94.640625 80.273438 94.457031 80.175781 94.222656 C 80.082031 93.992188 80.058594 93.753906 80.105469 93.507812 C 80.15625 93.261719 80.269531 93.046875 80.445312 92.871094 L 87.34375 85.976562 C 87.460938 85.863281 87.59375 85.777344 87.746094 85.71875 C 87.894531 85.660156 88.050781 85.632812 88.214844 85.632812 C 88.375 85.636719 88.53125 85.667969 88.679688 85.730469 C 88.828125 85.792969 88.960938 85.882812 89.074219 85.996094 C 89.1875 86.109375 89.277344 86.242188 89.339844 86.390625 C 89.402344 86.542969 89.4375 86.695312 89.4375 86.859375 C 89.441406 87.019531 89.410156 87.175781 89.351562 87.328125 C 89.292969 87.476562 89.207031 87.613281 89.097656 87.730469 L 82.199219 94.625 C 81.957031 94.867188 81.667969 94.988281 81.324219 94.988281 Z M 81.324219 94.988281 " fill-opacity="1" fill-rule="nonzero"/><g clip-path="url(#259f1ea0b6)"><path fill="#ffffff" d="M 102.210938 78.894531 L 80.597656 78.894531 C 80.433594 78.894531 80.273438 78.863281 80.121094 78.800781 C 79.96875 78.738281 79.835938 78.648438 79.71875 78.53125 C 79.601562 78.414062 79.511719 78.28125 79.449219 78.128906 C 79.386719 77.976562 79.355469 77.820312 79.355469 77.65625 C 79.355469 77.488281 79.386719 77.332031 79.449219 77.179688 C 79.511719 77.027344 79.601562 76.894531 79.71875 76.777344 C 79.835938 76.660156 79.96875 76.570312 80.121094 76.507812 C 80.273438 76.445312 80.433594 76.414062 80.597656 76.414062 L 100.972656 76.414062 L 100.972656 45.203125 L 53.539062 45.203125 L 53.539062 62.089844 C 53.539062 62.253906 53.507812 62.410156 53.445312 62.5625 C 53.382812 62.714844 53.292969 62.847656 53.175781 62.964844 C 53.0625 63.082031 52.925781 63.171875 52.773438 63.234375 C 52.621094 63.296875 52.464844 63.328125 52.300781 63.328125 C 52.136719 63.328125 51.976562 63.296875 51.824219 63.234375 C 51.671875 63.171875 51.539062 63.082031 51.421875 62.964844 C 51.304688 62.847656 51.214844 62.714844 51.152344 62.5625 C 51.089844 62.410156 51.058594 62.253906 51.058594 62.089844 L 51.058594 43.964844 C 51.058594 43.800781 51.089844 43.640625 51.152344 43.488281 C 51.214844 43.335938 51.304688 43.203125 51.421875 43.085938 C 51.539062 42.96875 51.671875 42.878906 51.824219 42.816406 C 51.976562 42.753906 52.136719 42.722656 52.300781 42.722656 L 102.210938 42.722656 C 102.378906 42.722656 102.535156 42.753906 102.6875 42.816406 C 102.839844 42.878906 102.972656 42.96875 103.089844 43.085938 C 103.207031 43.203125 103.296875 43.335938 103.359375 43.488281 C 103.421875 43.640625 103.453125 43.800781 103.453125 43.964844 L 103.453125 77.65625 C 103.453125 77.820312 103.421875 77.976562 103.359375 78.128906 C 103.296875 78.28125 103.207031 78.414062 103.089844 78.53125 C 102.972656 78.648438 102.839844 78.738281 102.6875 78.800781 C 102.535156 78.863281 102.378906 78.894531 102.210938 78.894531 Z M 102.210938 78.894531 " fill-opacity="1" fill-rule="nonzero"/></g><path fill="#ffffff" d="M 95.597656 51.941406 L 58.917969 51.941406 C 58.75 51.941406 58.59375 51.910156 58.441406 51.847656 C 58.289062 51.785156 58.15625 51.695312 58.039062 51.578125 C 57.921875 51.460938 57.832031 51.328125 57.769531 51.175781 C 57.707031 51.023438 57.675781 50.867188 57.675781 50.703125 C 57.675781 50.535156 57.707031 50.378906 57.769531 50.226562 C 57.832031 50.074219 57.921875 49.941406 58.039062 49.824219 C 58.15625 49.707031 58.289062 49.617188 58.441406 49.554688 C 58.59375 49.492188 58.75 49.460938 58.917969 49.460938 L 95.597656 49.460938 C 95.761719 49.460938 95.917969 49.492188 96.070312 49.554688 C 96.222656 49.617188 96.355469 49.707031 96.472656 49.824219 C 96.589844 49.941406 96.679688 50.074219 96.742188 50.226562 C 96.804688 50.378906 96.835938 50.535156 96.835938 50.703125 C 96.835938 50.867188 96.804688 51.023438 96.742188 51.175781 C 96.679688 51.328125 96.589844 51.460938 96.472656 51.578125 C 96.355469 51.695312 96.222656 51.785156 96.070312 51.847656 C 95.917969 51.910156 95.761719 51.941406 95.597656 51.941406 Z M 95.597656 51.941406 " fill-opacity="1" fill-rule="nonzero"/><path fill="#ffffff" d="M 95.597656 58.679688 L 74.242188 58.679688 C 74.078125 58.679688 73.921875 58.648438 73.769531 58.585938 C 73.617188 58.523438 73.480469 58.433594 73.367188 58.316406 C 73.25 58.203125 73.160156 58.066406 73.097656 57.914062 C 73.035156 57.761719 73.003906 57.605469 73.003906 57.441406 C 73.003906 57.277344 73.035156 57.117188 73.097656 56.964844 C 73.160156 56.8125 73.25 56.679688 73.367188 56.5625 C 73.480469 56.445312 73.617188 56.355469 73.769531 56.292969 C 73.921875 56.230469 74.078125 56.199219 74.242188 56.199219 L 95.597656 56.199219 C 95.761719 56.199219 95.917969 56.230469 96.070312 56.292969 C 96.222656 56.355469 96.359375 56.445312 96.472656 56.5625 C 96.589844 56.679688 96.679688 56.8125 96.742188 56.964844 C 96.804688 57.117188 96.835938 57.277344 96.835938 57.441406 C 96.835938 57.605469 96.804688 57.761719 96.742188 57.914062 C 96.679688 58.066406 96.589844 58.203125 96.472656 58.316406 C 96.359375 58.433594 96.222656 58.523438 96.070312 58.585938 C 95.917969 58.648438 95.761719 58.679688 95.597656 58.679688 Z M 95.597656 58.679688 " fill-opacity="1" fill-rule="nonzero"/><path fill="#ffffff" d="M 95.597656 65.417969 L 80.316406 65.417969 C 80.152344 65.417969 79.992188 65.386719 79.839844 65.324219 C 79.6875 65.261719 79.554688 65.171875 79.4375 65.054688 C 79.320312 64.9375 79.230469 64.804688 79.167969 64.652344 C 79.105469 64.5 79.074219 64.34375 79.074219 64.179688 C 79.074219 64.011719 79.105469 63.855469 79.167969 63.703125 C 79.230469 63.550781 79.320312 63.417969 79.4375 63.300781 C 79.554688 63.183594 79.6875 63.09375 79.839844 63.03125 C 79.992188 62.96875 80.152344 62.9375 80.316406 62.9375 L 95.597656 62.9375 C 95.761719 62.9375 95.917969 62.96875 96.070312 63.03125 C 96.222656 63.09375 96.359375 63.183594 96.472656 63.300781 C 96.589844 63.417969 96.679688 63.550781 96.742188 63.703125 C 96.804688 63.855469 96.835938 64.011719 96.835938 64.179688 C 96.835938 64.34375 96.804688 64.5 96.742188 64.652344 C 96.679688 64.804688 96.589844 64.9375 96.472656 65.054688 C 96.359375 65.171875 96.222656 65.261719 96.070312 65.324219 C 95.917969 65.386719 95.761719 65.417969 95.597656 65.417969 Z M 95.597656 65.417969 " fill-opacity="1" fill-rule="nonzero"/><path fill="#ffffff" d="M 95.597656 72.15625 L 81.917969 72.15625 C 81.75 72.15625 81.59375 72.125 81.441406 72.0625 C 81.289062 72 81.15625 71.910156 81.039062 71.792969 C 80.921875 71.675781 80.832031 71.542969 80.769531 71.390625 C 80.707031 71.238281 80.675781 71.082031 80.675781 70.914062 C 80.675781 70.75 80.707031 70.59375 80.769531 70.441406 C 80.832031 70.289062 80.921875 70.15625 81.039062 70.039062 C 81.15625 69.921875 81.289062 69.832031 81.441406 69.769531 C 81.59375 69.707031 81.75 69.675781 81.917969 69.675781 L 95.597656 69.675781 C 95.761719 69.675781 95.917969 69.707031 96.070312 69.769531 C 96.222656 69.832031 96.359375 69.921875 96.472656 70.039062 C 96.589844 70.15625 96.679688 70.289062 96.742188 70.441406 C 96.804688 70.59375 96.835938 70.75 96.835938 70.914062 C 96.835938 71.082031 96.804688 71.238281 96.742188 71.390625 C 96.679688 71.542969 96.589844 71.675781 96.472656 71.792969 C 96.359375 71.910156 96.222656 72 96.070312 72.0625 C 95.917969 72.125 95.761719 72.15625 95.597656 72.15625 Z M 95.597656 72.15625 " fill-opacity="1" fill-rule="nonzero"/></svg>