<svg xmlns="http://www.w3.org/2000/svg" xmlns:xlink="http://www.w3.org/1999/xlink" width="200" zoomAndPan="magnify" viewBox="0 0 150 149.999998" height="200" preserveAspectRatio="xMidYMid meet" version="1.0"><defs><clipPath id="1217651f36"><path d="M 11.382812 10.285156 L 138.617188 10.285156 L 138.617188 140 L 11.382812 140 Z M 11.382812 10.285156 " clip-rule="nonzero"/></clipPath><clipPath id="404afd475a"><path d="M 18.132812 10.285156 L 131.867188 10.285156 C 135.597656 10.285156 138.617188 13.308594 138.617188 17.035156 L 138.617188 132.964844 C 138.617188 136.691406 135.597656 139.714844 131.867188 139.714844 L 18.132812 139.714844 C 14.402344 139.714844 11.382812 136.691406 11.382812 132.964844 L 11.382812 17.035156 C 11.382812 13.308594 14.402344 10.285156 18.132812 10.285156 Z M 18.132812 10.285156 " clip-rule="nonzero"/></clipPath><clipPath id="7d9900e9f1"><path d="M 41.546875 52.960938 L 108.296875 52.960938 L 108.296875 97.210938 L 41.546875 97.210938 Z M 41.546875 52.960938 " clip-rule="nonzero"/></clipPath></defs><g clip-path="url(#1217651f36)"><g clip-path="url(#404afd475a)"><path fill="#185f97" d="M 11.382812 10.285156 L 138.617188 10.285156 L 138.617188 139.511719 L 11.382812 139.511719 Z M 11.382812 10.285156 " fill-opacity="1" fill-rule="nonzero"/></g></g><g clip-path="url(#7d9900e9f1)"><path fill="#ffffff" d="M 105.566406 66.003906 L 96.601562 75.917969 L 92.527344 72.15625 C 91.25 70.980469 89.148438 69.257812 87.742188 68.25 L 81.925781 64.082031 C 80.941406 63.382812 79.734375 63.078125 78.542969 63.078125 C 77.527344 63.078125 76.5 63.296875 75.621094 63.824219 L 73.519531 65.085938 C 73.199219 65.28125 72.816406 65.382812 72.421875 65.382812 C 71.71875 65.382812 71.011719 65.054688 70.617188 64.515625 L 70.160156 63.898438 L 70.152344 63.890625 C 69.910156 63.558594 69.796875 63.191406 69.789062 62.8125 C 69.796875 62.242188 70.058594 61.6875 70.566406 61.328125 L 76.777344 56.964844 C 77.316406 56.578125 78.273438 56.304688 79.183594 56.308594 C 79.8125 56.304688 80.417969 56.429688 80.828125 56.636719 L 85.882812 59.089844 C 86.746094 59.5 87.71875 59.671875 88.703125 59.671875 C 89.957031 59.664062 91.234375 59.390625 92.277344 58.75 L 97.449219 55.53125 C 97.777344 55.324219 98.171875 55.21875 98.589844 55.21875 C 99.285156 55.21875 99.984375 55.539062 100.382812 56.050781 L 105.679688 62.828125 C 105.988281 63.21875 106.160156 63.765625 106.160156 64.335938 C 106.164062 64.972656 105.9375 65.59375 105.566406 66.003906 Z M 97.8125 82.703125 L 97.277344 83.273438 C 96.902344 83.667969 96.40625 83.867188 95.886719 83.867188 C 95.417969 83.867188 94.960938 83.703125 94.601562 83.371094 L 85.652344 75.089844 L 84.097656 76.75 L 93.679688 85.625 C 94.082031 85.992188 94.285156 86.492188 94.285156 87.007812 C 94.277344 87.472656 94.117188 87.929688 93.78125 88.292969 L 93.253906 88.859375 C 92.878906 89.257812 92.375 89.453125 91.863281 89.453125 C 91.394531 89.453125 90.9375 89.289062 90.574219 88.957031 L 81.621094 80.679688 L 80.078125 82.335938 L 88.023438 89.6875 C 88.40625 90.054688 88.605469 90.542969 88.605469 91.039062 C 88.605469 91.507812 88.4375 91.960938 88.097656 92.324219 L 87.570312 92.890625 C 87.195312 93.289062 86.691406 93.492188 86.175781 93.492188 C 85.707031 93.492188 85.25 93.324219 84.894531 92.992188 L 76.957031 85.671875 L 76.957031 85.667969 L 75.414062 87.328125 L 75.441406 87.359375 L 79.414062 91.023438 C 79.769531 91.382812 79.953125 91.847656 79.953125 92.328125 C 79.953125 92.792969 79.789062 93.242188 79.449219 93.605469 L 78.921875 94.175781 C 78.546875 94.574219 78.046875 94.773438 77.53125 94.773438 C 77.0625 94.773438 76.605469 94.609375 76.25 94.269531 L 72.789062 91.070312 C 73.089844 90.480469 73.257812 89.839844 73.257812 89.199219 C 73.257812 88.105469 72.824219 87.007812 71.96875 86.195312 L 71.40625 85.65625 C 70.597656 84.894531 69.558594 84.515625 68.53125 84.515625 C 68.449219 84.515625 68.371094 84.535156 68.292969 84.539062 C 68.292969 84.523438 68.292969 84.496094 68.292969 84.480469 C 68.300781 83.386719 67.007812 81.476562 67.007812 81.476562 L 66.441406 80.941406 C 65.84375 80.371094 65.105469 80.015625 64.347656 79.875 C 64.5 79.429688 64.589844 78.964844 64.589844 78.496094 C 64.589844 77.410156 64.15625 76.304688 63.300781 75.496094 L 62.738281 74.957031 C 61.929688 74.199219 60.890625 73.8125 59.863281 73.816406 C 59.746094 73.816406 59.625 73.839844 59.503906 73.851562 C 59.472656 72.800781 59.050781 71.757812 58.230469 70.980469 L 57.667969 70.441406 C 56.859375 69.679688 55.820312 69.300781 54.792969 69.300781 C 53.695312 69.300781 52.589844 69.726562 51.773438 70.582031 L 50.429688 71.984375 L 44.476562 66.90625 C 44.046875 66.539062 43.835938 66.035156 43.835938 65.511719 C 43.835938 65.078125 43.984375 64.652344 44.304688 64.300781 L 50.578125 57.265625 C 50.828125 56.988281 51.195312 56.730469 51.628906 56.558594 C 52.0625 56.382812 52.550781 56.285156 53.007812 56.285156 C 53.410156 56.285156 53.785156 56.359375 54.082031 56.488281 L 57.53125 57.960938 C 58.503906 58.371094 59.632812 58.535156 60.765625 58.535156 C 61.902344 58.535156 63.027344 58.371094 63.996094 57.960938 L 67.445312 56.488281 C 67.972656 56.257812 68.773438 56.113281 69.570312 56.113281 C 70.457031 56.109375 71.339844 56.292969 71.851562 56.554688 C 72.175781 56.714844 72.484375 56.867188 72.769531 57.011719 L 69.257812 59.480469 C 68.128906 60.277344 67.515625 61.539062 67.523438 62.816406 C 67.515625 63.660156 67.785156 64.515625 68.328125 65.246094 L 68.792969 65.867188 C 69.671875 67.039062 71.050781 67.644531 72.421875 67.644531 C 73.199219 67.644531 73.988281 67.449219 74.695312 67.027344 L 76.796875 65.761719 C 77.222656 65.5 77.871094 65.339844 78.542969 65.339844 C 79.324219 65.335938 80.121094 65.566406 80.59375 65.921875 L 86.414062 70.089844 C 87.703125 71.015625 89.808594 72.738281 90.976562 73.816406 L 97.710938 80.039062 C 98.109375 80.40625 98.308594 80.90625 98.308594 81.421875 C 98.308594 81.886719 98.144531 82.34375 97.8125 82.703125 Z M 67.253906 93.84375 C 66.886719 94.226562 66.394531 94.425781 65.882812 94.425781 C 65.410156 94.425781 64.945312 94.25 64.578125 93.90625 L 64.015625 93.367188 C 63.628906 93 63.433594 92.507812 63.433594 92 C 63.433594 91.527344 63.605469 91.0625 63.949219 90.703125 L 67.15625 87.359375 C 67.523438 86.972656 68.019531 86.777344 68.527344 86.777344 C 69 86.777344 69.46875 86.949219 69.832031 87.292969 L 70.402344 87.835938 C 70.789062 88.203125 70.976562 88.695312 70.984375 89.199219 C 70.976562 89.675781 70.8125 90.132812 70.460938 90.5 Z M 59.050781 91.65625 C 58.574219 91.65625 58.113281 91.492188 57.746094 91.140625 L 57.179688 90.605469 C 56.789062 90.238281 56.597656 89.746094 56.597656 89.242188 C 56.597656 88.820312 56.742188 88.410156 57.015625 88.066406 L 62.296875 82.550781 C 62.65625 82.230469 63.101562 82.058594 63.5625 82.058594 C 64.042969 82.0625 64.507812 82.230469 64.867188 82.582031 L 65.4375 83.113281 C 65.824219 83.484375 66.019531 83.976562 66.019531 84.480469 C 66.019531 84.953125 65.847656 85.417969 65.503906 85.78125 L 60.421875 91.082031 C 60.054688 91.46875 59.5625 91.65625 59.050781 91.65625 Z M 52.835938 88.296875 C 52.359375 88.296875 51.890625 88.132812 51.527344 87.785156 L 50.964844 87.246094 L 50.960938 87.246094 C 50.574219 86.878906 50.378906 86.386719 50.378906 85.882812 C 50.378906 85.40625 50.550781 84.941406 50.898438 84.582031 C 50.898438 84.582031 58.488281 76.683594 58.546875 76.609375 C 58.910156 76.257812 59.378906 76.078125 59.859375 76.078125 C 60.332031 76.078125 60.800781 76.25 61.164062 76.597656 L 61.734375 77.136719 C 62.121094 77.503906 62.316406 77.992188 62.316406 78.496094 C 62.316406 78.972656 62.144531 79.433594 61.792969 79.796875 L 54.207031 87.722656 C 53.832031 88.105469 53.339844 88.296875 52.835938 88.296875 Z M 47.789062 80.746094 C 47.398438 80.371094 47.207031 79.886719 47.199219 79.378906 C 47.207031 78.90625 47.375 78.441406 47.722656 78.082031 L 53.417969 72.136719 C 53.785156 71.75 54.285156 71.5625 54.789062 71.5625 C 55.261719 71.5625 55.726562 71.726562 56.09375 72.078125 L 56.660156 72.613281 C 56.660156 72.613281 57.238281 73.472656 57.238281 73.976562 C 57.238281 74.359375 57.128906 74.726562 56.902344 75.046875 C 56.882812 75.0625 50.761719 81.445312 50.761719 81.445312 C 50.4375 81.679688 50.050781 81.796875 49.660156 81.796875 C 49.183594 81.796875 48.722656 81.625 48.351562 81.28125 Z M 108.433594 64.335938 C 108.433594 63.320312 108.128906 62.289062 107.46875 61.441406 L 102.175781 54.660156 C 101.285156 53.539062 99.9375 52.960938 98.589844 52.957031 C 97.78125 52.957031 96.96875 53.164062 96.246094 53.613281 L 91.078125 56.828125 C 90.53125 57.175781 89.601562 57.414062 88.703125 57.410156 C 88.003906 57.414062 87.328125 57.273438 86.882812 57.050781 L 81.816406 54.601562 C 81.003906 54.207031 80.097656 54.046875 79.183594 54.046875 C 77.871094 54.054688 76.539062 54.375 75.464844 55.117188 L 74.878906 55.53125 C 74.402344 55.296875 73.683594 54.933594 72.867188 54.527344 C 71.886719 54.046875 70.734375 53.851562 69.570312 53.851562 C 68.519531 53.851562 67.46875 54.011719 66.550781 54.40625 L 63.101562 55.875 C 62.542969 56.121094 61.652344 56.273438 60.765625 56.273438 C 59.875 56.273438 58.984375 56.121094 58.425781 55.875 L 54.976562 54.40625 C 54.347656 54.136719 53.671875 54.023438 53.007812 54.019531 C 52.242188 54.023438 51.476562 54.171875 50.769531 54.457031 C 50.0625 54.75 49.402344 55.175781 48.882812 55.765625 L 42.601562 62.792969 C 41.90625 63.570312 41.5625 64.550781 41.5625 65.511719 C 41.5625 66.664062 42.054688 67.816406 42.996094 68.621094 L 48.855469 73.621094 L 46.078125 76.519531 C 45.3125 77.320312 44.933594 78.351562 44.933594 79.378906 C 44.925781 80.464844 45.359375 81.570312 46.222656 82.378906 L 46.785156 82.917969 C 47.3125 83.421875 47.953125 83.742188 48.621094 83.910156 C 48.289062 84.527344 48.101562 85.203125 48.101562 85.882812 C 48.101562 86.972656 48.535156 88.070312 49.390625 88.886719 L 49.957031 89.417969 C 50.761719 90.183594 51.800781 90.566406 52.835938 90.566406 C 53.386719 90.566406 53.9375 90.453125 54.457031 90.238281 C 54.640625 90.976562 55.019531 91.679688 55.609375 92.246094 L 56.175781 92.78125 C 56.980469 93.546875 58.023438 93.925781 59.050781 93.925781 C 59.859375 93.925781 60.664062 93.6875 61.359375 93.226562 C 61.5625 93.882812 61.914062 94.5 62.441406 95.003906 L 63.011719 95.546875 C 63.8125 96.304688 64.855469 96.6875 65.882812 96.6875 C 66.976562 96.6875 68.085938 96.257812 68.898438 95.402344 L 71.359375 92.839844 L 74.695312 95.925781 C 75.496094 96.667969 76.515625 97.035156 77.527344 97.035156 C 78.640625 97.035156 79.765625 96.589844 80.578125 95.71875 L 81.117188 95.148438 C 81.574219 94.648438 81.878906 94.066406 82.050781 93.457031 L 83.335938 94.648438 C 84.140625 95.390625 85.167969 95.753906 86.175781 95.753906 C 87.285156 95.753906 88.414062 95.308594 89.226562 94.4375 L 89.761719 93.867188 C 90.371094 93.214844 90.71875 92.398438 90.824219 91.574219 C 91.164062 91.664062 91.507812 91.722656 91.855469 91.722656 C 92.972656 91.722656 94.09375 91.277344 94.914062 90.398438 L 95.441406 89.828125 C 96.183594 89.035156 96.554688 88.011719 96.554688 87.007812 C 96.554688 86.695312 96.511719 86.386719 96.441406 86.078125 C 97.367188 85.957031 98.257812 85.542969 98.941406 84.8125 L 99.46875 84.242188 C 100.214844 83.445312 100.585938 82.425781 100.585938 81.417969 C 100.585938 80.3125 100.132812 79.195312 99.253906 78.378906 L 98.257812 77.457031 L 107.25 67.519531 C 108.058594 66.621094 108.433594 65.46875 108.433594 64.335938 " fill-opacity="1" fill-rule="nonzero"/></g></svg>