<svg xmlns="http://www.w3.org/2000/svg" xmlns:xlink="http://www.w3.org/1999/xlink" width="500" zoomAndPan="magnify" viewBox="0 0 375 374.999991" height="500" preserveAspectRatio="xMidYMid meet" version="1.0"><defs><clipPath id="188387768e"><path d="M 15.332031 37.5 L 359.796875 37.5 L 359.796875 341.578125 L 15.332031 341.578125 Z M 15.332031 37.5 " clip-rule="nonzero"/></clipPath><clipPath id="0498406ab9"><path d="M 355.367188 205.097656 L 285.011719 326.019531 C 279.40625 335.652344 269.101562 341.578125 257.957031 341.578125 L 117.042969 341.578125 C 105.898438 341.578125 95.59375 335.652344 89.988281 326.019531 L 19.632812 205.097656 C 14.039062 195.480469 14.039062 183.597656 19.632812 173.980469 L 89.988281 53.058594 C 95.59375 43.425781 105.898438 37.5 117.042969 37.5 L 257.957031 37.5 C 269.101562 37.5 279.40625 43.425781 285.011719 53.058594 L 355.367188 173.980469 C 360.960938 183.597656 360.960938 195.480469 355.367188 205.097656 Z M 355.367188 205.097656 " clip-rule="nonzero"/></clipPath><clipPath id="498944127f"><path d="M 86.246094 88.03125 L 288.746094 88.03125 L 288.746094 290 L 86.246094 290 Z M 86.246094 88.03125 " clip-rule="nonzero"/></clipPath></defs><g clip-path="url(#188387768e)"><g clip-path="url(#0498406ab9)"><path fill="#42c453" d="M 10.582031 37.5 L 364.546875 37.5 L 364.546875 341.578125 L 10.582031 341.578125 Z M 10.582031 37.5 " fill-opacity="1" fill-rule="nonzero"/></g></g><g clip-path="url(#498944127f)"><path fill="#ffffff" d="M 187.425781 88.21875 C 131.203125 88.40625 86.261719 134.125 87 190.34375 C 87.066406 196.003906 87.605469 201.617188 88.621094 207.183594 C 89.640625 212.753906 91.117188 218.195312 93.054688 223.511719 C 94.992188 228.832031 97.359375 233.949219 100.164062 238.867188 C 102.96875 243.78125 106.164062 248.429688 109.753906 252.804688 C 110.320312 253.496094 110.769531 254.257812 111.109375 255.089844 C 111.445312 255.917969 111.652344 256.777344 111.730469 257.671875 C 111.808594 258.5625 111.753906 259.445312 111.566406 260.320312 C 111.378906 261.195312 111.066406 262.023438 110.628906 262.804688 L 101.945312 278.363281 C 99.539062 282.675781 103.460938 287.777344 108.25 286.558594 L 137.652344 279.070312 C 138.679688 278.8125 139.71875 278.734375 140.769531 278.84375 C 141.824219 278.949219 142.824219 279.238281 143.777344 279.699219 C 150.277344 282.859375 157.042969 285.285156 164.070312 286.980469 C 171.097656 288.679688 178.222656 289.605469 185.449219 289.757812 C 241.980469 291.039062 288.382812 245.867188 288.558594 189.324219 C 288.730469 133.398438 243.355469 88.027344 187.425781 88.21875 Z M 187.773438 277.367188 C 186.328125 277.367188 184.882812 277.332031 183.4375 277.261719 C 181.992188 277.1875 180.550781 277.082031 179.113281 276.941406 C 177.671875 276.800781 176.238281 276.621094 174.808594 276.410156 C 173.378906 276.199219 171.953125 275.949219 170.535156 275.667969 C 169.117188 275.386719 167.707031 275.070312 166.300781 274.71875 C 164.898438 274.367188 163.507812 273.980469 162.121094 273.5625 C 160.738281 273.140625 159.367188 272.6875 158.003906 272.203125 C 156.644531 271.714844 155.292969 271.195312 153.957031 270.640625 C 152.621094 270.085938 151.300781 269.5 149.992188 268.882812 C 148.683594 268.265625 147.394531 267.613281 146.117188 266.933594 C 144.84375 266.25 143.585938 265.539062 142.34375 264.796875 C 141.105469 264.050781 139.882812 263.277344 138.679688 262.476562 C 137.476562 261.671875 136.296875 260.839844 135.132812 259.976562 C 133.972656 259.117188 132.832031 258.226562 131.714844 257.308594 C 130.597656 256.390625 129.503906 255.449219 128.429688 254.476562 C 127.359375 253.503906 126.3125 252.507812 125.289062 251.484375 C 124.265625 250.464844 123.269531 249.414062 122.300781 248.34375 C 121.328125 247.273438 120.382812 246.179688 119.464844 245.058594 C 118.546875 243.941406 117.660156 242.800781 116.796875 241.640625 C 115.9375 240.480469 115.105469 239.296875 114.300781 238.09375 C 113.496094 236.890625 112.722656 235.671875 111.980469 234.429688 C 111.238281 233.191406 110.523438 231.933594 109.84375 230.65625 C 109.160156 229.382812 108.511719 228.089844 107.890625 226.78125 C 107.273438 225.476562 106.6875 224.152344 106.132812 222.816406 C 105.582031 221.480469 105.0625 220.132812 104.574219 218.769531 C 104.085938 217.410156 103.632812 216.035156 103.214844 214.652344 C 102.792969 213.269531 102.40625 211.875 102.054688 210.472656 C 101.703125 209.070312 101.386719 207.660156 101.105469 206.242188 C 100.824219 204.820312 100.578125 203.398438 100.363281 201.96875 C 100.152344 200.535156 99.976562 199.101562 99.832031 197.664062 C 99.691406 196.222656 99.585938 194.78125 99.515625 193.335938 C 99.445312 191.894531 99.40625 190.449219 99.40625 189 C 99.40625 140.199219 138.972656 100.636719 187.773438 100.636719 C 236.386719 100.636719 275.832031 139.890625 276.136719 188.433594 C 276.445312 237.136719 236.480469 277.367188 187.773438 277.367188 Z M 187.773438 277.367188 " fill-opacity="1" fill-rule="nonzero"/></g><path fill="#42c453" d="M 276.140625 189 C 276.140625 190.445312 276.105469 191.890625 276.03125 193.335938 C 275.960938 194.78125 275.855469 196.222656 275.714844 197.664062 C 275.570312 199.101562 275.394531 200.535156 275.183594 201.96875 C 274.96875 203.398438 274.722656 204.820312 274.441406 206.242188 C 274.160156 207.660156 273.84375 209.070312 273.492188 210.472656 C 273.140625 211.875 272.753906 213.269531 272.335938 214.652344 C 271.914062 216.035156 271.460938 217.410156 270.972656 218.769531 C 270.488281 220.132812 269.964844 221.480469 269.414062 222.816406 C 268.859375 224.152344 268.273438 225.476562 267.65625 226.78125 C 267.035156 228.089844 266.386719 229.378906 265.707031 230.65625 C 265.023438 231.929688 264.3125 233.191406 263.566406 234.429688 C 262.824219 235.671875 262.050781 236.890625 261.246094 238.09375 C 260.445312 239.296875 259.609375 240.480469 258.75 241.640625 C 257.886719 242.800781 257 243.941406 256.082031 245.058594 C 255.164062 246.175781 254.21875 247.273438 253.25 248.34375 C 252.277344 249.414062 251.28125 250.460938 250.257812 251.484375 C 249.234375 252.507812 248.1875 253.503906 247.117188 254.476562 C 246.042969 255.445312 244.949219 256.390625 243.832031 257.308594 C 242.714844 258.226562 241.574219 259.117188 240.414062 259.976562 C 239.25 260.839844 238.070312 261.671875 236.867188 262.472656 C 235.664062 263.277344 234.441406 264.050781 233.203125 264.792969 C 231.960938 265.539062 230.703125 266.25 229.429688 266.933594 C 228.152344 267.613281 226.863281 268.265625 225.554688 268.882812 C 224.246094 269.5 222.925781 270.085938 221.589844 270.640625 C 220.253906 271.195312 218.90625 271.714844 217.542969 272.199219 C 216.179688 272.6875 214.808594 273.140625 213.425781 273.5625 C 212.039062 273.980469 210.648438 274.367188 209.246094 274.71875 C 207.84375 275.070312 206.429688 275.386719 205.011719 275.667969 C 203.59375 275.949219 202.171875 276.199219 200.738281 276.410156 C 199.308594 276.621094 197.875 276.800781 196.433594 276.941406 C 194.996094 277.082031 193.554688 277.1875 192.109375 277.261719 C 190.664062 277.332031 189.21875 277.367188 187.773438 277.367188 C 186.328125 277.367188 184.882812 277.332031 183.4375 277.261719 C 181.992188 277.1875 180.550781 277.082031 179.113281 276.941406 C 177.671875 276.800781 176.238281 276.621094 174.808594 276.410156 C 173.378906 276.199219 171.953125 275.949219 170.535156 275.667969 C 169.117188 275.386719 167.707031 275.070312 166.300781 274.71875 C 164.898438 274.367188 163.507812 273.980469 162.121094 273.5625 C 160.738281 273.140625 159.367188 272.6875 158.003906 272.199219 C 156.640625 271.714844 155.292969 271.195312 153.957031 270.640625 C 152.621094 270.085938 151.300781 269.5 149.992188 268.882812 C 148.683594 268.265625 147.394531 267.613281 146.117188 266.933594 C 144.84375 266.25 143.585938 265.539062 142.34375 264.792969 C 141.105469 264.050781 139.882812 263.277344 138.679688 262.472656 C 137.476562 261.671875 136.296875 260.839844 135.132812 259.976562 C 133.972656 259.117188 132.832031 258.226562 131.714844 257.308594 C 130.597656 256.390625 129.503906 255.445312 128.429688 254.476562 C 127.359375 253.503906 126.3125 252.507812 125.289062 251.484375 C 124.265625 250.460938 123.269531 249.414062 122.300781 248.34375 C 121.328125 247.273438 120.382812 246.175781 119.464844 245.058594 C 118.546875 243.941406 117.660156 242.800781 116.796875 241.640625 C 115.9375 240.480469 115.105469 239.296875 114.300781 238.09375 C 113.496094 236.890625 112.722656 235.671875 111.980469 234.429688 C 111.238281 233.191406 110.523438 231.929688 109.84375 230.65625 C 109.160156 229.378906 108.511719 228.089844 107.890625 226.78125 C 107.273438 225.476562 106.6875 224.152344 106.132812 222.816406 C 105.582031 221.480469 105.0625 220.132812 104.574219 218.769531 C 104.085938 217.410156 103.632812 216.035156 103.214844 214.652344 C 102.792969 213.269531 102.40625 211.875 102.054688 210.472656 C 101.703125 209.070312 101.386719 207.660156 101.105469 206.242188 C 100.824219 204.820312 100.578125 203.398438 100.363281 201.96875 C 100.152344 200.535156 99.976562 199.101562 99.832031 197.664062 C 99.691406 196.222656 99.585938 194.78125 99.515625 193.335938 C 99.445312 191.890625 99.40625 190.445312 99.40625 189 C 99.40625 187.554688 99.445312 186.109375 99.515625 184.664062 C 99.585938 183.21875 99.691406 181.777344 99.832031 180.339844 C 99.976562 178.902344 100.152344 177.464844 100.363281 176.035156 C 100.578125 174.605469 100.824219 173.179688 101.105469 171.761719 C 101.386719 170.34375 101.703125 168.933594 102.054688 167.53125 C 102.40625 166.128906 102.792969 164.734375 103.214844 163.351562 C 103.632812 161.964844 104.085938 160.59375 104.574219 159.230469 C 105.0625 157.871094 105.582031 156.519531 106.132812 155.183594 C 106.6875 153.847656 107.273438 152.527344 107.890625 151.21875 C 108.511719 149.914062 109.160156 148.621094 109.84375 147.347656 C 110.523438 146.070312 111.238281 144.8125 111.980469 143.570312 C 112.722656 142.332031 113.496094 141.109375 114.300781 139.90625 C 115.105469 138.707031 115.9375 137.523438 116.796875 136.363281 C 117.660156 135.199219 118.546875 134.058594 119.464844 132.941406 C 120.382812 131.824219 121.328125 130.730469 122.300781 129.660156 C 123.269531 128.585938 124.265625 127.539062 125.289062 126.515625 C 126.3125 125.496094 127.359375 124.496094 128.429688 123.527344 C 129.503906 122.554688 130.597656 121.609375 131.714844 120.695312 C 132.832031 119.777344 133.972656 118.886719 135.132812 118.023438 C 136.296875 117.164062 137.476562 116.332031 138.679688 115.527344 C 139.882812 114.722656 141.105469 113.949219 142.34375 113.207031 C 143.585938 112.464844 144.84375 111.75 146.117188 111.070312 C 147.394531 110.386719 148.683594 109.738281 149.992188 109.121094 C 151.300781 108.5 152.621094 107.914062 153.957031 107.363281 C 155.292969 106.808594 156.640625 106.289062 158.003906 105.800781 C 159.367188 105.3125 160.738281 104.859375 162.121094 104.441406 C 163.507812 104.019531 164.898438 103.636719 166.300781 103.285156 C 167.707031 102.933594 169.117188 102.617188 170.535156 102.332031 C 171.953125 102.050781 173.378906 101.804688 174.808594 101.59375 C 176.238281 101.378906 177.671875 101.203125 179.113281 101.0625 C 180.550781 100.917969 181.992188 100.8125 183.4375 100.742188 C 184.882812 100.671875 186.328125 100.636719 187.773438 100.636719 C 189.21875 100.636719 190.664062 100.671875 192.109375 100.742188 C 193.554688 100.8125 194.996094 100.917969 196.433594 101.0625 C 197.875 101.203125 199.308594 101.378906 200.738281 101.59375 C 202.171875 101.804688 203.59375 102.050781 205.011719 102.332031 C 206.429688 102.617188 207.84375 102.933594 209.246094 103.285156 C 210.648438 103.636719 212.039062 104.019531 213.425781 104.441406 C 214.808594 104.859375 216.179688 105.3125 217.542969 105.800781 C 218.90625 106.289062 220.253906 106.808594 221.589844 107.363281 C 222.925781 107.914062 224.246094 108.5 225.554688 109.121094 C 226.863281 109.738281 228.152344 110.386719 229.429688 111.070312 C 230.703125 111.75 231.960938 112.464844 233.203125 113.207031 C 234.441406 113.949219 235.664062 114.722656 236.867188 115.527344 C 238.070312 116.332031 239.25 117.164062 240.414062 118.023438 C 241.574219 118.886719 242.714844 119.777344 243.832031 120.695312 C 244.949219 121.609375 246.042969 122.554688 247.117188 123.527344 C 248.1875 124.496094 249.234375 125.496094 250.257812 126.515625 C 251.28125 127.539062 252.277344 128.585938 253.25 129.660156 C 254.21875 130.730469 255.164062 131.824219 256.082031 132.941406 C 257 134.058594 257.886719 135.199219 258.75 136.363281 C 259.609375 137.523438 260.445312 138.707031 261.246094 139.90625 C 262.050781 141.109375 262.824219 142.332031 263.566406 143.570312 C 264.3125 144.8125 265.023438 146.070312 265.707031 147.347656 C 266.386719 148.621094 267.035156 149.914062 267.65625 151.21875 C 268.273438 152.527344 268.859375 153.847656 269.414062 155.183594 C 269.964844 156.519531 270.488281 157.871094 270.972656 159.230469 C 271.460938 160.59375 271.914062 161.964844 272.335938 163.351562 C 272.753906 164.734375 273.140625 166.128906 273.492188 167.53125 C 273.84375 168.933594 274.160156 170.34375 274.441406 171.761719 C 274.722656 173.179688 274.96875 174.605469 275.183594 176.035156 C 275.394531 177.464844 275.570312 178.902344 275.714844 180.339844 C 275.855469 181.777344 275.960938 183.21875 276.03125 184.664062 C 276.105469 186.109375 276.140625 187.554688 276.140625 189 Z M 276.140625 189 " fill-opacity="1" fill-rule="nonzero"/><path fill="#ffffff" d="M 171.980469 146.039062 L 172.019531 146.121094 L 177.292969 156.574219 C 177.574219 157.136719 177.8125 157.71875 178 158.316406 C 178.191406 158.917969 178.332031 159.53125 178.421875 160.152344 C 178.511719 160.777344 178.554688 161.402344 178.542969 162.03125 C 178.53125 162.660156 178.472656 163.285156 178.363281 163.90625 C 178.25 164.523438 178.089844 165.132812 177.882812 165.726562 C 177.671875 166.320312 177.417969 166.894531 177.117188 167.445312 C 176.816406 168 176.472656 168.523438 176.085938 169.019531 C 175.699219 169.519531 175.277344 169.980469 174.816406 170.410156 C 174.355469 170.835938 173.933594 171.296875 173.550781 171.789062 C 173.164062 172.28125 172.820312 172.804688 172.519531 173.351562 C 172.21875 173.902344 171.964844 174.46875 171.753906 175.058594 C 171.546875 175.648438 171.382812 176.253906 171.269531 176.867188 C 171.160156 177.484375 171.09375 178.105469 171.082031 178.730469 C 171.070312 179.355469 171.105469 179.980469 171.195312 180.597656 C 171.28125 181.21875 171.417969 181.828125 171.601562 182.425781 C 171.785156 183.023438 172.019531 183.601562 172.296875 184.164062 C 175.460938 190.515625 180.941406 199.273438 189.304688 205.59375 C 190.242188 206.304688 191.265625 206.863281 192.371094 207.265625 C 193.476562 207.671875 194.617188 207.90625 195.792969 207.964844 C 196.96875 208.027344 198.125 207.914062 199.269531 207.628906 C 200.410156 207.339844 201.484375 206.890625 202.492188 206.28125 L 205.882812 204.214844 C 206.644531 203.753906 207.449219 203.382812 208.296875 203.101562 C 209.140625 202.824219 210.007812 202.640625 210.894531 202.558594 C 211.78125 202.476562 212.667969 202.496094 213.550781 202.617188 C 214.433594 202.738281 215.289062 202.957031 216.125 203.273438 L 229.613281 208.402344 C 230.332031 208.675781 231.019531 209.015625 231.667969 209.425781 C 232.320312 209.832031 232.925781 210.300781 233.484375 210.828125 C 234.042969 211.355469 234.546875 211.929688 234.992188 212.558594 C 235.4375 213.183594 235.816406 213.847656 236.132812 214.546875 C 236.449219 215.25 236.691406 215.972656 236.863281 216.722656 C 237.035156 217.472656 237.132812 218.230469 237.15625 219 C 237.175781 219.765625 237.125 220.53125 236.996094 221.289062 C 236.871094 222.046875 236.667969 222.785156 236.394531 223.503906 C 236.238281 223.914062 236.058594 224.316406 235.855469 224.707031 L 232.117188 231.953125 C 231.816406 232.539062 231.464844 233.097656 231.070312 233.625 C 230.671875 234.152344 230.234375 234.640625 229.753906 235.09375 C 229.277344 235.546875 228.761719 235.957031 228.210938 236.324219 C 227.664062 236.6875 227.089844 237.003906 226.484375 237.273438 C 225.882812 237.542969 225.261719 237.761719 224.625 237.925781 C 223.984375 238.089844 223.335938 238.199219 222.679688 238.25 C 222.023438 238.304688 221.367188 238.304688 220.707031 238.25 C 220.050781 238.191406 219.402344 238.082031 218.765625 237.914062 C 197.578125 232.433594 147.078125 213.378906 143.011719 155.757812 C 142.929688 154.613281 143.015625 153.484375 143.265625 152.363281 C 143.515625 151.246094 143.925781 150.1875 144.484375 149.1875 C 145.046875 148.1875 145.742188 147.292969 146.566406 146.496094 C 147.394531 145.703125 148.316406 145.042969 149.335938 144.515625 L 156.214844 140.984375 C 156.898438 140.632812 157.613281 140.351562 158.351562 140.136719 C 159.089844 139.925781 159.84375 139.789062 160.609375 139.726562 C 161.375 139.664062 162.140625 139.675781 162.902344 139.761719 C 163.667969 139.851562 164.414062 140.011719 165.144531 140.246094 C 165.878906 140.480469 166.578125 140.785156 167.253906 141.160156 C 167.925781 141.53125 168.554688 141.964844 169.140625 142.464844 C 169.726562 142.960938 170.257812 143.511719 170.734375 144.113281 C 171.214844 144.714844 171.628906 145.355469 171.980469 146.039062 Z M 171.980469 146.039062 " fill-opacity="1" fill-rule="nonzero"/></svg>